{
  "accessors": [
    {
      "bufferView": 2,
      "componentType": 5126,
      "count": 65533,
      "max": [
        1.4788320064544678,
        -0.014564000070095062,
        0.07836300134658813
      ],
      "min": [
        -1.276818037033081,
        -1.6942030191421509,
        -0.007170999888330698
      ],
      "type": "VEC3"
    },
    {
      "bufferView": 2,
      "byteOffset": 786396,
      "componentType": 5126,
      "count": 65533,
      "max": [
        0.9999983310699463,
        0.9999889135360718,
        0.6778356432914734
      ],
      "min": [
        -0.9999949932098389,
        -0.9991599321365356,
        -1.0
      ],
      "type": "VEC3"
    },
    {
      "bufferView": 1,
      "componentType": 5126,
      "count": 65533,
      "max": [
        0.9779350161552429,
        0.9999920129776001
      ],
      "min": [
        5.0999999075429514e-05,
        2.499999936844688e-05
      ],
      "type": "VEC2"
    },
    {
      "bufferView": 0,
      "componentType": 5125,
      "count": 353751,
      "type": "SCALAR"
    },
    {
      "bufferView": 2,
      "byteOffset": 1572792,
      "componentType": 5126,
      "count": 12379,
      "max": [
        1.4761619567871094,
        -0.014456000179052353,
        0.0748940035700798
      ],
      "min": [
        -1.2767159938812256,
        -1.6942030191421509,
        -0.007170999888330698
      ],
      "type": "VEC3"
    },
    {
      "bufferView": 2,
      "byteOffset": 1721340,
      "componentType": 5126,
      "count": 12379,
      "max": [
        0.9999743700027466,
        0.9999529123306274,
        0.30922001600265503
      ],
      "min": [
        -0.9999624490737915,
        -0.9970119595527649,
        -1.0
      ],
      "type": "VEC3"
    },
    {
      "bufferView": 1,
      "byteOffset": 524264,
      "componentType": 5126,
      "count": 12379,
      "max": [
        0.9772449731826782,
        0.9515680074691772
      ],
      "min": [
        0.05102600157260895,
        2.5999999706982635e-05
      ],
      "type": "VEC2"
    },
    {
      "bufferView": 0,
      "byteOffset": 1415004,
      "componentType": 5125,
      "count": 64806,
      "type": "SCALAR"
    }
  ],
  "asset": {
    "extras": {
      "author": "SPLEEN VISION (https://sketchfab.com/spleen.vision)",
      "license": "CC-BY-4.0 (http://creativecommons.org/licenses/by/4.0/)",
      "source": "https://sketchfab.com/3d-models/wooden-wall-ec7424b7965d40d1a04903d0743f6cc3",
      "title": "wooden wall"
    },
    "generator": "Sketchfab-12.66.0",
    "version": "2.0"
  },
  "bufferViews": [
    {
      "buffer": 0,
      "byteLength": 1674228,
      "name": "floatBufferViews",
      "target": 34963
    },
    {
      "buffer": 0,
      "byteLength": 623296,
      "byteOffset": 1674228,
      "byteStride": 8,
      "name": "floatBufferViews",
      "target": 34962
    },
    {
      "buffer": 0,
      "byteLength": 1869888,
      "byteOffset": 2297524,
      "byteStride": 12,
      "name": "floatBufferViews",
      "target": 34962
    }
  ],
  "buffers": [
    {
      "byteLength": 4167412,
      "uri": "scene.bin"
    }
  ],
  "extensionsUsed": [
    "KHR_materials_unlit"
  ],
  "images": [
    {
      "uri": "textures/textured_0.003_baseColor.jpeg"
    }
  ],
  "materials": [
    {
      "doubleSided": true,
      "extensions": {
        "KHR_materials_unlit": {}
      },
      "name": "textured_0.003",
      "pbrMetallicRoughness": {
        "baseColorTexture": {
          "index": 0
        },
        "metallicFactor": 0.0
      }
    }
  ],
  "meshes": [
    {
      "name": "Object_0",
      "primitives": [
        {
          "attributes": {
            "NORMAL": 1,
            "POSITION": 0,
            "TEXCOORD_0": 2
          },
          "indices": 3,
          "material": 0,
          "mode": 4
        }
      ]
    },
    {
      "name": "Object_1",
      "primitives": [
        {
          "attributes": {
            "NORMAL": 5,
            "POSITION": 4,
            "TEXCOORD_0": 6
          },
          "indices": 7,
          "material": 0,
          "mode": 4
        }
      ]
    }
  ],
  "nodes": [
    {
      "children": [
        1
      ],
      "matrix": [
        1.0624133348464966,
        0.0,
        0.0,
        0.0,
        0.0,
        -1.0624133348464966,
        -4.718062984061507e-16,
        0.0,
        0.0,
        4.718062984061507e-16,
        -1.0624133348464966,
        0.0,
        0.0,
        -0.8187301158905032,
        0.8899220824241636,
        1.0
      ],
      "name": "Sketchfab_model"
    },
    {
      "children": [
        2,
        3
      ],
      "name": "holzwand.obj.cleaner.materialmerger.gles"
    },
    {
      "mesh": 0,
      "name": "Object_2"
    },
    {
      "mesh": 1,
      "name": "Object_3"
    }
  ],
  "samplers": [
    {
      "magFilter": 9729,
      "minFilter": 9987,
      "wrapS": 10497,
      "wrapT": 10497
    }
  ],
  "scene": 0,
  "scenes": [
    {
      "name": "Sketchfab_Scene",
      "nodes": [
        0
      ]
    }
  ],
  "textures": [
    {
      "sampler": 0,
      "source": 0
    }
  ]
}
